<?xml version="1.0" encoding="utf-8"?>
<!-- Generator: Adobe Illustrator 24.0.1, SVG Export Plug-In . SVG Version: 6.00 Build 0)  -->
<svg version="1.1" id="Layer_1" xmlns="http://www.w3.org/2000/svg" xmlns:xlink="http://www.w3.org/1999/xlink" x="0px" y="0px"
	 viewBox="0 0 623.62 136.06" style="enable-background:new 0 0 623.62 136.06;" xml:space="preserve">
<style type="text/css">
	.st0{fill:#1374BA;}
	.st1{fill-rule:evenodd;clip-rule:evenodd;fill:#1374BA;}
</style>
<g>
	<g>
		<path class="st0" d="M114.13,38.9H70.18v90.05H50.23V38.9H6.2V18.96h107.92V38.9z"/>
	</g>
	<g>
		<path class="st0" d="M207.01,73.49c0,2.76-0.49,5.74-1.46,8.94c-0.97,3.2-2.54,6.16-4.72,8.9c-2.17,2.74-5.01,5.02-8.51,6.87
			c-3.5,1.84-7.76,2.76-12.77,2.76h-35.97V82.01h35.97c2.71,0,4.81-0.83,6.29-2.49c1.48-1.66,2.22-3.72,2.22-6.17
			c0-2.61-0.83-4.65-2.49-6.14c-1.66-1.48-3.67-2.22-6.02-2.22h-35.97c-2.71,0-4.81,0.83-6.29,2.49c-1.48,1.66-2.22,3.72-2.22,6.17
			v27.84c0,2.66,0.83,4.73,2.49,6.21c1.66,1.48,3.72,2.22,6.17,2.22h35.82v19.02h-35.97c-2.76,0-5.74-0.49-8.94-1.46
			c-3.2-0.97-6.16-2.54-8.9-4.72c-2.74-2.17-5.02-5.01-6.86-8.51c-1.84-3.5-2.76-7.76-2.76-12.77v-28c0-2.76,0.49-5.74,1.46-8.94
			c0.97-3.2,2.54-6.16,4.72-8.9c2.17-2.74,5.01-5.02,8.51-6.87c3.5-1.84,7.76-2.76,12.77-2.76h35.97c2.76,0,5.74,0.49,8.94,1.46
			c3.19,0.97,6.16,2.54,8.9,4.72c2.73,2.17,5.02,5.01,6.87,8.51C206.09,64.23,207.01,68.48,207.01,73.49z"/>
	</g>
	<g>
		<path class="st0" d="M300.74,128.95h-54.08c-2.76,0-5.78-0.49-9.05-1.46c-3.27-0.97-6.3-2.57-9.09-4.79
			c-2.79-2.22-5.11-5.11-6.98-8.67c-1.87-3.55-2.8-7.91-2.8-13.08v-27c0-1.89,0.22-3.89,0.65-5.98c0.43-2.1,1.11-4.18,2.03-6.25
			c0.92-2.07,2.11-4.05,3.57-5.94c1.46-1.89,3.22-3.55,5.29-4.99c2.07-1.43,4.46-2.58,7.17-3.45c2.71-0.87,5.78-1.3,9.2-1.3h54.08
			v19.94h-54.08c-2.61,0-4.59,0.67-5.94,1.99c-1.36,1.33-2.03,3.38-2.03,6.14v26.85c0,2.61,0.69,4.6,2.07,5.98
			c1.38,1.38,3.4,2.07,6.06,2.07h53.92V128.95z"/>
		<path class="st0" d="M337.48,128.95h-19.94V10.98h19.94V128.95z M409.43,128.95h-19.94v-55c0-2.61-0.67-4.59-1.99-5.95
			c-1.33-1.35-3.33-2.03-5.98-2.03h-35.97V46.03h35.97c1.89,0,3.89,0.22,5.98,0.65c2.1,0.44,4.18,1.11,6.25,2.03
			c2.07,0.92,4.05,2.11,5.95,3.57c1.89,1.46,3.55,3.22,4.99,5.29c1.43,2.07,2.58,4.46,3.45,7.17c0.87,2.71,1.3,5.78,1.3,9.21V128.95
			z"/>
		<path class="st0" d="M518.35,118.9c0,1.43-0.26,2.76-0.77,3.99c-0.51,1.23-1.22,2.29-2.11,3.18c-0.9,0.89-1.94,1.6-3.15,2.11
			c-1.2,0.51-2.49,0.77-3.87,0.77h-45.1c-2.45,0-5.08-0.28-7.86-0.84c-2.79-0.56-5.54-1.47-8.25-2.72
			c-2.71-1.25-5.33-2.84-7.86-4.76c-2.53-1.92-4.74-4.24-6.63-6.98c-1.89-2.74-3.41-5.89-4.56-9.47c-1.15-3.58-1.73-7.62-1.73-12.12
			V46.03h19.94v46.02c0,2.61,0.45,4.95,1.34,7.02c0.89,2.07,2.11,3.85,3.64,5.33c1.53,1.48,3.34,2.62,5.41,3.41s4.31,1.19,6.71,1.19
			h34.9V46.03h19.94V118.9z"/>
	</g>
	<g>
		<path class="st0" d="M617.39,128.95h-54.08c-2.76,0-5.78-0.49-9.05-1.46c-3.27-0.97-6.3-2.57-9.09-4.79
			c-2.79-2.22-5.11-5.11-6.98-8.67c-1.87-3.55-2.8-7.91-2.8-13.08v-27c0-1.89,0.22-3.89,0.65-5.98c0.43-2.1,1.11-4.18,2.03-6.25
			c0.92-2.07,2.11-4.05,3.57-5.94c1.46-1.89,3.22-3.55,5.29-4.99c2.07-1.43,4.46-2.58,7.17-3.45c2.71-0.87,5.78-1.3,9.2-1.3h54.08
			v19.94h-54.08c-2.61,0-4.59,0.67-5.94,1.99c-1.36,1.33-2.03,3.38-2.03,6.14v26.85c0,2.61,0.69,4.6,2.07,5.98s3.4,2.07,6.06,2.07
			h53.92V128.95z"/>
	</g>
	<polygon class="st1" points="466.51,29.64 501.28,7.51 509.9,24.47 473.12,39.7 	"/>
</g>
</svg>
